<svg width="500" height="400" viewBox="0 0 500 400" fill="none" xmlns="http://www.w3.org/2000/svg">
  <!-- Background -->
  <rect width="500" height="400" rx="10" fill="#F0F7FF"/>
  
  <!-- Main PDF document -->
  <rect x="100" y="50" width="250" height="300" rx="10" fill="white" stroke="#E2E8F0" stroke-width="2"/>
  
  <!-- PDF header decoration -->
  <rect x="120" y="80" width="210" height="12" rx="6" fill="#EBF5FF"/>
  <rect x="120" y="102" width="180" height="12" rx="6" fill="#EBF5FF"/>
  <rect x="120" y="124" width="160" height="12" rx="6" fill="#EBF5FF"/>
  
  <!-- PDF body content -->
  <rect x="120" y="160" width="210" height="8" rx="4" fill="#E2E8F0"/>
  <rect x="120" y="178" width="210" height="8" rx="4" fill="#E2E8F0"/>
  <rect x="120" y="196" width="210" height="8" rx="4" fill="#E2E8F0"/>
  <rect x="120" y="214" width="160" height="8" rx="4" fill="#E2E8F0"/>
  
  <rect x="120" y="240" width="210" height="8" rx="4" fill="#E2E8F0"/>
  <rect x="120" y="258" width="210" height="8" rx="4" fill="#E2E8F0"/>
  <rect x="120" y="276" width="180" height="8" rx="4" fill="#E2E8F0"/>
  
  <rect x="120" y="300" width="80" height="25" rx="4" fill="#3A86FF"/>
  
  <!-- Arrow indicating conversion -->
  <path d="M380 200 L420 200 L400 180 M400 220 L420 200" stroke="#3A86FF" stroke-width="5" stroke-linecap="round" stroke-linejoin="round"/>
  
  <!-- Document coming out -->
  <rect x="150" y="150" width="200" height="60" rx="8" fill="#3A86FF" opacity="0.1" transform="translate(300, 0) rotate(15)"/>
  <rect x="150" y="150" width="200" height="60" rx="8" fill="#3A86FF" opacity="0.2" transform="translate(300, 0) rotate(8)"/>
  <rect x="150" y="150" width="200" height="60" rx="8" fill="#3A86FF" opacity="0.3" transform="translate(300, 0) rotate(4)"/>
</svg>